<svg viewBox="-254.60714285714286 -271.9295311991181 509.2142857142857 371.9295311991181" xmlns="http://www.w3.org/2000/svg" xmlns:xlink="http://www.w3.org/1999/xlink" version="1.1" class="jsx-2263963463 artboard-inner" style="width: 262.87px; height: 192px; max-height: 100%;">
    <g transform="translate(-261.75 100.00000000000001) scale(1.9841269841269842)" fill="#232323">
        <g id="line1">
            <path d="M39.960-40.680C39.960-46.008 35.640-50.400 30.240-50.400L3.600-50.400L6.192-45.144L6.192 0L30.240 0C35.640 0 39.960-4.392 39.960-9.720L39.960-21.456L36.216-25.200L39.960-28.944ZM28.368-32.472C28.368-31.392 27.504-30.528 26.424-30.528L17.856-30.528L17.856-39.888L26.424-39.888C27.504-39.888 28.368-39.024 28.368-38.016ZM28.368-12.528C28.368-11.448 27.504-10.584 26.424-10.584L17.856-10.584L17.856-19.872L26.928-19.872C27.720-19.656 28.368-18.936 28.368-18.072Z"></path>
            <path d="M72.943-50.400L66.247-29.088L59.551-50.400L46.951-50.400L60.415-17.064L60.415 0L72.079 0L72.079-17.064L85.615-50.400Z"></path>
            <path d="M117.374-50.400L117.374-30.456L106.862-30.456L106.862-50.400L92.606-50.400L95.270-45.144L95.270 0L106.862 0L106.862-19.944L117.374-19.944L117.374 0L129.038 0L129.038-50.400Z"></path>
            <path d="M161.878-10.512L150.286-10.512L148.414 0L136.030 0L145.534-45.144L142.870-50.400L165.550-50.400L176.062 0L163.750 0ZM160.006-20.952L156.118-43.056L152.158-20.952Z"></path>
            <path d="M216.821-34.344L216.821-40.680C216.821-46.008 212.429-50.400 207.101-50.400L192.773-50.400C187.445-50.400 183.053-46.008 183.053-40.680L183.053-31.536C183.053-27.000 186.221-23.040 190.685-22.032L203.645-19.080C204.581-18.936 205.157-18.144 205.157-17.208L205.157-12.384C205.157-11.376 204.293-10.512 203.213-10.512L196.661-10.512C195.581-10.512 194.717-11.376 194.717-12.384L194.717-16.056L183.053-16.056L183.053-9.720C183.053-4.392 187.445 0 192.773 0L207.101 0C212.429 0 216.821-4.392 216.821-9.720L216.821-18.864C216.821-23.400 213.653-27.360 209.189-28.368L196.229-31.320C195.365-31.464 194.717-32.256 194.717-33.192L194.717-38.016C194.717-39.024 195.581-39.888 196.661-39.888L203.213-39.888C204.293-39.888 205.157-39.024 205.157-38.016L205.157-34.344Z"></path>
            <path d="M248.580-50.400L248.580-30.456L238.068-30.456L238.068-50.400L223.812-50.400L226.476-45.144L226.476 0L238.068 0L238.068-19.944L248.580-19.944L248.580 0L260.244 0L260.244-50.400Z"></path>
        </g>
    </g>
    <g transform="translate(-180.1774283511831 -331.1434586326823) scale(3.6035737231970377)" id="logomark">
        <g fill="#232323">
            <path d="M80.16 32.469a.998.998 0 0 0-.37-.5L58.256 16.617a1.001 1.001 0 0 0-.58-.185H42.004a1 1 0 0 0-.597.198L20.085 32.514a1 1 0 0 0-.35.482l-5.01 14.818c-.069.206-.07.428-.002.634l8.209 24.84c.071.216.214.401.406.525l14.818 9.595c.162.105.35.16.544.16h24.733c.211 0 .418-.067.589-.191l13.006-9.489c.172-.125.3-.303.364-.505l7.888-24.84a.999.999 0 0 0-.004-.616L80.16 32.469zm2.236 13.122L58.84 28.366a1 1 0 0 0-1.178-.002L35.77 44.27l-2.45-7.54 24.366-18.061 20.676 14.74 4.033 12.183zM58.368 62.233h-16.76L36.42 46.269 50 36.402l13.579 9.866-5.211 15.965zM42.336 18.432h12.311l-23.095 17.12a1 1 0 0 0-.356 1.112l8.308 25.569h-7.976l-9.665-28.55 20.473-15.251zM16.727 48.138l3.957-11.701 9.18 27.117a1 1 0 0 0 .947.679h26.904l-2.527 7.74H24.604l-7.877-23.835zm10.538 25.836h28.649a1 1 0 0 0 .95-.69l8.416-25.78 6.898 5.012-9.471 29.052H38.995l-11.73-7.594zm48.32-1.509l-10.243 7.472 8.963-27.493a1 1 0 0 0-.363-1.119l-22.24-16.159 6.545-4.755 24.91 18.213-7.573 23.841z"></path>
        </g>
    </g>
</svg>
